<?xml version="1.0" encoding="UTF-8" standalone="no"?>
<svg
   xmlns:dc="http://purl.org/dc/elements/1.1/"
   xmlns:cc="http://creativecommons.org/ns#"
   xmlns:rdf="http://www.w3.org/1999/02/22-rdf-syntax-ns#"
   xmlns:svg="http://www.w3.org/2000/svg"
   xmlns="http://www.w3.org/2000/svg"
   xmlns:xlink="http://www.w3.org/1999/xlink"
   xmlns:sodipodi="http://sodipodi.sourceforge.net/DTD/sodipodi-0.dtd"
   xmlns:inkscape="http://www.inkscape.org/namespaces/inkscape"
   width="25mm"
   height="25mm"
   viewBox="0 0 25 25"
   version="1.1"
   id="svg8"
   sodipodi:docname="bao-angry-face-no.svg"
   inkscape:version="1.0.2 (e86c870879, 2021-01-15, custom)">
  <defs
     id="defs2">
    <radialGradient
       inkscape:collect="always"
       xlink:href="#linearGradient189192"
       id="radialGradient189360"
       gradientUnits="userSpaceOnUse"
       gradientTransform="matrix(-1.9299987,0.01163238,-0.00775282,-1.286314,340.74457,91.042354)"
       cx="115.92937"
       cy="41.872303"
       fx="115.92937"
       fy="41.872303"
       r="11.521405" />
    <linearGradient
       inkscape:collect="always"
       id="linearGradient189192">
      <stop
         style="stop-color:#ffffff;stop-opacity:1"
         offset="0"
         id="stop189188" />
      <stop
         style="stop-color:#ffffff;stop-opacity:1"
         offset="0.37391838"
         id="stop189196" />
      <stop
         style="stop-color:#c3a686;stop-opacity:1"
         offset="1"
         id="stop189190" />
    </linearGradient>
  </defs>
  <sodipodi:namedview
     id="base"
     pagecolor="#ffffff"
     bordercolor="#666666"
     borderopacity="1.0"
     inkscape:pageopacity="0.0"
     inkscape:pageshadow="2"
     inkscape:zoom="5.6568543"
     inkscape:cx="25.071924"
     inkscape:cy="41.674452"
     inkscape:document-units="mm"
     inkscape:current-layer="layer1"
     inkscape:document-rotation="0"
     showgrid="false"
     inkscape:window-width="2560"
     inkscape:window-height="1387"
     inkscape:window-x="-8"
     inkscape:window-y="-8"
     inkscape:window-maximized="1" />
  <metadata
     id="metadata5">
    <rdf:RDF>
      <cc:Work
         rdf:about="">
        <dc:format>image/svg+xml</dc:format>
        <dc:type
           rdf:resource="http://purl.org/dc/dcmitype/StillImage" />
        <dc:title></dc:title>
      </cc:Work>
    </rdf:RDF>
  </metadata>
  <g
     inkscape:label="Layer 1"
     inkscape:groupmode="layer"
     id="layer1">
    <g
       id="g1790"
       transform="matrix(0.02202044,0,0,0.02202044,17.777272,3.1359291)"
       style="stroke-width:12.0153">
      <path
         d="m 61.61,122.31 c -1.34,0.62 -2.82,0.72 -4.15,0.37 -1.46,-0.39 -2.75,-1.31 -3.55,-2.67 L 39.03,94.36 24.88,110.24 c -1.97,2.21 -4.21,3.88 -6.37,4.75 -1.66,0.67 -3.31,0.88 -4.84,0.56 -1.69,-0.36 -3.14,-1.33 -4.2,-3.01 -0.84,-1.33 -1.4,-3.11 -1.57,-5.39 L 0.01,4.41 C 0,4.33 0,4.25 0,4.18 -0.01,3.54 0.11,2.91 0.37,2.34 0.66,1.68 1.13,1.08 1.74,0.64 2,0.44 2.28,0.31 2.58,0.23 3.17,0.03 3.78,-0.04 4.37,0.03 4.94,0.09 5.5,0.26 6.01,0.55 6.18,0.63 6.35,0.73 6.5,0.85 l 84.88,58.11 c 1.88,1.29 3.14,2.66 3.88,4.05 0.93,1.75 1.04,3.49 0.5,5.14 -0.48,1.49 -1.5,2.81 -2.9,3.91 -1.82,1.43 -4.39,2.54 -7.3,3.14 -0.03,0.01 -0.07,0.01 -0.1,0.02 l -20.73,4.29 14.77,25.73 c 0.78,1.36 0.93,2.94 0.54,4.39 -0.38,1.41 -1.27,2.71 -2.59,3.56 -0.05,0.04 -0.11,0.07 -0.17,0.1 l -15.34,8.86 c -0.1,0.06 -0.21,0.11 -0.33,0.16 z m -2.77,-4.83 c 0.15,0.04 0.3,0.04 0.44,-0.01 0.05,-0.03 0.1,-0.06 0.16,-0.08 l 15.14,-8.74 c 0.14,-0.1 0.23,-0.25 0.28,-0.41 0.03,-0.13 0.03,-0.25 -0.01,-0.33 L 58.23,78.97 h 0.01 C 58.1,78.73 58,78.46 57.94,78.17 57.64,76.72 58.58,75.3 60.03,75 l 24.36,-5.04 c 0.03,-0.01 0.06,-0.02 0.1,-0.02 2.1,-0.44 3.88,-1.18 5.07,-2.11 0.58,-0.46 0.97,-0.91 1.11,-1.35 0.09,-0.27 0.05,-0.6 -0.15,-0.97 -0.34,-0.64 -1.03,-1.34 -2.15,-2.11 L 5.58,6.74 13.27,106.76 c 0.1,1.36 0.37,2.32 0.75,2.92 0.22,0.35 0.49,0.55 0.77,0.61 0.45,0.1 1.04,-0.01 1.72,-0.28 1.39,-0.56 2.92,-1.73 4.35,-3.34 L 37.48,88.02 v 0 c 0.19,-0.21 0.41,-0.39 0.66,-0.54 1.28,-0.74 2.93,-0.31 3.67,0.98 l 16.75,28.85 c 0.06,0.08 0.15,0.14 0.28,0.17 z m 0.59,-0.09 c 0.35,-0.17 0.75,-0.27 1.17,-0.27 z"
         id="path1788"
         style="stroke-width:12.0153" />
    </g>
    <g
       id="g1762"
       transform="translate(0,4.4768211)">
      <g
         id="g189311"
         transform="translate(-104.29678,-27.590429)">
        <path
           id="path186342-6-8-6-3-7"
           style="mix-blend-mode:normal;fill:url(#radialGradient189360);fill-opacity:1;fill-rule:nonzero;stroke:#ab9176;stroke-width:0.529166;stroke-linecap:round;stroke-linejoin:round;stroke-miterlimit:4;stroke-dasharray:none;stroke-opacity:1"
           d="m 116.73456,32.333125 c -0.24688,-0.0143 -0.45036,0.08038 -0.71573,0.265594 -0.94845,0.661985 -2.04073,1.161952 -4.17822,1.913195 -2.45091,0.861399 -3.16803,1.262724 -4.40616,2.466232 -1.39977,1.360642 -1.99467,2.944339 -1.88129,5.00662 0.18175,3.305693 3.19065,5.356504 8.50562,5.797077 1.59958,0.132594 4.85057,0.05467 6.24204,-0.149464 4.09265,-0.600378 6.65375,-2.244146 7.42858,-4.768048 0.51421,-1.674956 0.4493,-2.550622 -0.31072,-4.194892 -0.84412,-1.826223 -2.62245,-3.055434 -6.40358,-4.426278 -1.08673,-0.393994 -2.3876,-0.967834 -2.89077,-1.275373 -0.68356,-0.417784 -1.07236,-0.616263 -1.38977,-0.634663 z"
           sodipodi:nodetypes="sssssscsssss" />
        <g
           id="g186340-12-8-8"
           transform="matrix(0.36263478,0,0,0.38269904,-20.176183,9.049845)"
           style="stroke-width:2.68435">
          <path
             style="fill:#cfc3b9;stroke-width:2.68435"
             d="m 372.91722,81.671591 c -1.16436,-0.843465 -2.28218,-2.541074 -2.5637,-3.893468 -0.0959,-0.460766 -0.0392,-1.353735 0.12608,-1.984375 0.32903,-1.25562 1.43849,-3.130994 1.85227,-3.130994 0.15122,0 0.26248,0.972949 0.26474,2.315104 0.004,2.427404 0.50219,5.092414 1.20622,6.453852 0.22901,0.44287 0.36709,0.854519 0.30684,0.914773 -0.0602,0.06025 -0.59686,-0.243449 -1.19245,-0.674892 z m 9.09763,-1.072075 c -1.53518,-0.599549 -2.41267,-1.364533 -3.0979,-2.7007 -0.68432,-1.33441 -0.68046,-4.706896 0.005,-4.706896 0.10319,0 0.71488,1.041797 1.35931,2.315105 0.81686,1.61399 1.67145,2.815899 2.82189,3.96875 1.56374,1.56701 1.61233,1.652997 0.92749,1.641271 -0.39749,-0.0068 -1.30477,-0.239697 -2.01618,-0.51753 z M 361.2372,78.121629 c -1.5576,-2.520249 0.23298,-4.828897 4.94053,-6.369986 1.76564,-0.578007 2.28624,-0.41855 1.07583,0.329522 -2.04978,1.266838 -4.70374,4.90981 -4.71244,6.468568 -0.004,0.759399 -0.71403,0.526359 -1.30392,-0.428104 z m 26.56904,-1.641623 c -0.43656,-0.227052 -1.0506,-0.653426 -1.36454,-0.947497 -0.70677,-0.662051 -1.8542,-2.781919 -1.62813,-3.007979 0.0915,-0.09155 1.04047,0.305972 2.10872,0.883367 2.16051,1.167763 3.30585,1.580849 5.64645,2.036482 l 1.5875,0.309034 -1.19062,0.565525 c -1.45373,0.690497 -3.98923,0.769649 -5.15938,0.161068 z"
             id="path186334-8-4-8-5"
             sodipodi:nodetypes="ssssssssssssssssssscsssssscss" />
        </g>
      </g>
      <ellipse
         style="display:inline;fill:#ab9176;fill-opacity:1;stroke:none;stroke-width:1.6;stroke-linecap:round;stroke-linejoin:round;stroke-opacity:1"
         id="path909-6-4"
         cx="8.7556314"
         cy="15.731469"
         rx="0.95587057"
         ry="0.92418164" />
      <path
         style="display:inline;fill:none;fill-opacity:1;stroke:#ab9176;stroke-width:0.75;stroke-linecap:butt;stroke-linejoin:miter;stroke-miterlimit:4;stroke-dasharray:none;stroke-opacity:1"
         d="m 7.4843544,14.148581 2.6367566,1.368243"
         id="path1667" />
      <path
         style="display:inline;fill:none;fill-opacity:1;stroke:#ab9176;stroke-width:0.48;stroke-linecap:round;stroke-linejoin:miter;stroke-miterlimit:4;stroke-dasharray:none;stroke-opacity:1"
         d="m 11.342831,17.433963 c 1.079747,-0.595821 1.091134,-0.625005 2.033402,0.03487"
         id="path1667-2"
         sodipodi:nodetypes="cc" />
      <ellipse
         style="display:inline;fill:#ab9176;fill-opacity:1;stroke:none;stroke-width:1.6;stroke-linecap:round;stroke-linejoin:round;stroke-opacity:1"
         id="path909-6-4-3"
         cx="15.625485"
         cy="15.780618"
         rx="0.95587057"
         ry="0.92418164" />
      <path
         style="display:inline;fill:none;fill-opacity:1;stroke:#ab9176;stroke-width:0.75;stroke-linecap:butt;stroke-linejoin:miter;stroke-miterlimit:4;stroke-dasharray:none;stroke-opacity:1"
         d="m 16.90252,14.241124 -2.636756,1.368242"
         id="path1667-28" />
      <ellipse
         style="display:inline;fill:#f6c4dd;fill-opacity:1;stroke:#f6c4dd;stroke-width:0.32;stroke-linecap:round;stroke-linejoin:round;stroke-miterlimit:4;stroke-dasharray:none;stroke-opacity:1"
         id="path1315-1-1-4"
         cx="16.925068"
         cy="17.312052"
         rx="1.1079427"
         ry="0.3677296" />
      <ellipse
         style="display:inline;fill:#f6c4dd;fill-opacity:1;stroke:#f6c4dd;stroke-width:0.32;stroke-linecap:round;stroke-linejoin:round;stroke-miterlimit:4;stroke-dasharray:none;stroke-opacity:1"
         id="path1315-1-9-9-0"
         cx="7.5488901"
         cy="17.264086"
         rx="1.1079427"
         ry="0.3677296" />
    </g>
    <path
       id="rect1764"
       style="fill:none;stroke:#ab9176;stroke-width:0.479999;stroke-linecap:round;stroke-linejoin:round"
       d="m 14.987393,1.2851668 h 7.361838 c 1.261981,0 2.277943,1.0159626 2.277943,2.2779429 l 0,2.0022797 c 0,1.2619804 -1.015962,2.2779429 -2.277943,2.2779429 h -5.644886 l -1.870886,1.6036172 0.153934,-1.6036172 c 0,0 -0.102509,-0.00169 -0.153098,-0.00502 C 13.644247,7.7600688 12.70945,6.7759108 12.70945,5.5653894 l 0,-2.0022797 c 0,-1.2619803 1.015962,-2.2779429 2.277943,-2.2779429 z"
       sodipodi:nodetypes="ssssscccssss" />
    <circle
       style="fill:none;stroke:#d40000;stroke-width:0.64;stroke-linecap:round;stroke-linejoin:round;stroke-miterlimit:4;stroke-dasharray:none;stroke-opacity:1"
       id="path1773"
       cx="19.100367"
       cy="0.37711698"
       r="2.052871"
       transform="rotate(12.551541)" />
    <path
       style="fill:none;stroke:#d40000;stroke-width:0.64;stroke-linecap:butt;stroke-linejoin:miter;stroke-miterlimit:4;stroke-dasharray:none;stroke-opacity:1"
       d="M 16.621691,5.8809837 20.23021,3.3541854"
       id="path1775" />
  </g>
</svg>
