<?xml version="1.0" encoding="UTF-8" standalone="no"?>
<svg
   xmlns:osb="http://www.openswatchbook.org/uri/2009/osb"
   xmlns:dc="http://purl.org/dc/elements/1.1/"
   xmlns:cc="http://creativecommons.org/ns#"
   xmlns:rdf="http://www.w3.org/1999/02/22-rdf-syntax-ns#"
   xmlns:svg="http://www.w3.org/2000/svg"
   xmlns="http://www.w3.org/2000/svg"
   xmlns:xlink="http://www.w3.org/1999/xlink"
   xmlns:sodipodi="http://sodipodi.sourceforge.net/DTD/sodipodi-0.dtd"
   xmlns:inkscape="http://www.inkscape.org/namespaces/inkscape"
   width="100mm"
   height="100mm"
   viewBox="0 0 100 100"
   version="1.1"
   id="svg8"
   sodipodi:docname="bao-cart.svg"
   inkscape:version="1.0.2 (e86c870879, 2021-01-15, custom)">
  <defs
     id="defs2">
    <linearGradient
       inkscape:collect="always"
       id="linearGradient189192">
      <stop
         style="stop-color:#ffffff;stop-opacity:1"
         offset="0"
         id="stop189188" />
      <stop
         style="stop-color:#ffffff;stop-opacity:1"
         offset="0.37391838"
         id="stop189196" />
      <stop
         style="stop-color:#c3a686;stop-opacity:1"
         offset="1"
         id="stop189190" />
    </linearGradient>
    <linearGradient
       id="linearGradient189162"
       osb:paint="solid">
      <stop
         style="stop-color:#999999;stop-opacity:1;"
         offset="0"
         id="stop189160" />
    </linearGradient>
    <linearGradient
       id="linearGradient187222"
       osb:paint="solid">
      <stop
         style="stop-color:#999999;stop-opacity:1;"
         offset="0"
         id="stop187220" />
    </linearGradient>
    <radialGradient
       inkscape:collect="always"
       xlink:href="#linearGradient189192"
       id="radialGradient189194"
       cx="115.92937"
       cy="41.872303"
       fx="115.92937"
       fy="41.872303"
       r="11.521405"
       gradientTransform="matrix(-1.9299987,0.01163238,-0.00775282,-1.286314,340.74457,91.042354)"
       gradientUnits="userSpaceOnUse" />
  </defs>
  <sodipodi:namedview
     id="base"
     pagecolor="#ffffff"
     bordercolor="#666666"
     borderopacity="1.0"
     inkscape:pageopacity="0.0"
     inkscape:pageshadow="2"
     inkscape:zoom="1.865274"
     inkscape:cx="341.44841"
     inkscape:cy="257.00994"
     inkscape:document-units="mm"
     inkscape:current-layer="layer1"
     inkscape:document-rotation="0"
     showgrid="false"
     inkscape:window-width="2560"
     inkscape:window-height="1387"
     inkscape:window-x="-8"
     inkscape:window-y="-8"
     inkscape:window-maximized="1" />
  <metadata
     id="metadata5">
    <rdf:RDF>
      <cc:Work
         rdf:about="">
        <dc:format>image/svg+xml</dc:format>
        <dc:type
           rdf:resource="http://purl.org/dc/dcmitype/StillImage" />
        <dc:title></dc:title>
      </cc:Work>
    </rdf:RDF>
  </metadata>
  <g
     inkscape:label="Layer 1"
     inkscape:groupmode="layer"
     id="layer1">
    <g
       id="g4592"
       transform="matrix(1.1810854,0,0,1.3385838,-8.1237755,-33.274147)"
       style="stroke-width:0.79531">
      <path
         style="fill:#ab9176;fill-opacity:1;stroke-width:0.795308"
         d="m 77.757441,98.224834 c 1.292997,-0.389156 1.769953,-1.517215 1.769953,-2.657932 0,-0.380659 -0.207276,-1.098672 -0.460614,-1.595583 l -0.460616,-0.90347 0.857671,-1.124653 0.857671,-1.124653 3.269724,-0.0047 c 4.031833,-0.0064 5.000746,-0.329639 5.716991,-1.907719 0.437256,-0.963402 0.452822,4.469506 0.457768,-15.397999 -0.0833,-4.862672 -0.09455,-7.768389 0.07275,-8.869213 0.654397,-0.974752 0.86131,-2.233399 0.863603,-3.478688 0,-1.821478 -0.07357,-2.242387 -0.48252,-2.76234 -0.431863,-0.549018 -0.639638,-0.613426 -1.9789,-0.613426 H 86.744545 V 55.44104 c 0,-1.288882 -0.105039,-2.539706 -0.233442,-2.779608 -0.156045,-0.29158 -0.156045,-0.484023 0,-0.580465 0.132044,-0.0816 0.233442,-1.204804 0.233442,-2.585637 0,-2.281649 -0.0374,-2.478747 -0.571444,-3.012807 -0.389751,-0.389754 -0.831391,-0.571448 -1.389012,-0.571448 -0.559072,0 -1.275087,-0.29571 -2.264596,-0.935259 -0.795864,-0.514391 -1.843392,-0.998641 -2.327838,-1.076106 -0.567473,-0.09076 -1.009844,-0.337774 -1.243526,-0.69442 -0.471724,-0.719941 -1.391044,-0.727958 -1.857411,-0.01621 -0.221376,0.337866 -0.778986,0.646787 -1.501876,0.83206 -0.632377,0.162074 -1.65462,0.65361 -2.27165,1.092301 -0.803707,0.571413 -1.372678,0.79762 -2.006241,0.79762 -0.634646,0 -1.049935,0.165567 -1.470708,0.586341 -0.569855,0.569854 -0.583253,0.656577 -0.476593,3.08475 0.131644,2.997099 0.127796,2.405301 -2.34e-4,5.583164 l -0.108744,2.619128 H 68.454358 67.65404 l -0.01422,-2.619128 c -0.0079,-1.440521 -0.0075,-5.25834 4.65e-4,-8.484045 0.01453,-5.806491 0.0096,-5.868526 -0.503201,-6.227706 -0.284877,-0.199532 -0.87239,-0.362789 -1.30559,-0.362789 -0.50442,0 -1.041106,-0.213285 -1.492559,-0.593156 -0.895801,-0.753768 -2.126024,-1.382087 -3.35291,-1.712453 -0.632029,-0.170189 -1.003016,-0.417818 -1.08275,-0.722727 -0.190502,-0.728484 -1.505591,-0.641869 -1.794567,0.118205 -0.146033,0.384094 -0.401386,0.582801 -0.750873,0.584301 -0.70914,0.003 -2.683073,0.942071 -3.589747,1.707687 -0.496613,0.419352 -1.002006,0.618155 -1.571476,0.618155 -0.530962,0 -1.011737,0.1723 -1.308312,0.468878 -0.445911,0.44591 -0.467852,0.750982 -0.447877,6.227705 0.01143,3.167355 0.01314,6.937436 0.0032,8.377957 l -0.01771,2.619147 H 49.748078 49.07024 l -0.122684,-2.61913 c -0.06749,-1.440519 -0.119427,-2.723893 -0.115459,-2.851939 0.0039,-0.128059 0.05674,-1.363016 0.117246,-2.744379 l 0.110005,-2.511567 -0.71359,-0.66659 c -0.392473,-0.366625 -0.713587,-0.834089 -0.713587,-1.038808 0,-0.270181 -0.223368,-0.372216 -0.814839,-0.372216 -0.731343,0 -0.815843,-0.06559 -0.824599,-0.640232 -0.01248,-0.820357 -0.791996,-2.318566 -1.016942,-1.954595 -0.208983,0.338146 -1.360009,0.347805 -1.693602,0.01422 -0.324299,-0.3243 -1.00468,0.974561 -1.00468,1.91795 0,0.364466 -0.104776,0.662665 -0.232813,0.662665 -0.128059,0 -0.237201,-0.288105 -0.242569,-0.640232 -0.01248,-0.820357 -0.791995,-2.318567 -1.01694,-1.954596 -0.209132,0.338377 -1.455709,0.349293 -1.662589,0.01453 -0.234374,-0.379224 -1.035696,1.081112 -1.035696,1.887461 0,0.381046 -0.104762,0.692808 -0.232811,0.692808 -0.128046,0 -0.232812,-0.298199 -0.232812,-0.662666 0,-0.364465 -0.163336,-0.990079 -0.362969,-1.390254 -0.317735,-0.636914 -0.418664,-0.692805 -0.809888,-0.44848 -0.332851,0.207867 -0.619206,0.214073 -1.121936,0.02432 -0.63596,-0.240048 -0.696864,-0.208976 -1.052603,0.537017 -0.207671,0.435493 -0.377586,1.050167 -0.377586,1.365938 0,0.418922 -0.125878,0.574131 -0.465622,0.574131 -0.294309,0 -0.465625,0.155199 -0.465625,0.421839 0,0.232012 -0.324717,0.661916 -0.721592,0.955339 l -0.721596,0.533496 0.05192,2.944256 c 0.02855,1.619338 0.03899,4.070477 0.02316,5.446974 l -0.02876,2.502743 h -1.164058 -1.164058 l -0.01786,-3.433967 c -0.02972,-5.715536 -0.0046,-5.518388 -0.715075,-5.600652 -0.680047,-0.07875 -0.888368,-0.537007 -0.893573,-1.96572 -0.003,-0.810856 -0.05211,-0.873042 -0.690051,-0.873042 -0.666746,0 -0.691505,0.04093 -0.844911,1.396867 -0.141003,1.246239 -0.214482,1.39687 -0.681488,1.39687 -0.740456,0 -1.068868,0.50434 -1.006516,1.545713 0.0296,0.494342 0.0328,2.391709 0.0072,4.216369 l -0.0467,3.317562 h -1.147157 c -0.962,0 -1.225043,0.09901 -1.629678,0.613426 -0.408998,0.519955 -0.482522,0.940864 -0.482522,2.762341 0,1.796394 0.07638,2.246022 0.465624,2.740859 0.281268,0.357575 0.465622,0.944464 0.465622,1.482308 v 0.890365 l -2.391277,-2.383173 c -1.615473,-1.609976 -2.65353,-2.458353 -3.199619,-2.61497 -0.889762,-0.25518 -5.800176,-0.316649 -6.948512,-0.08698 -1.1119416,0.222389 -1.8949019,1.141002 -1.8949019,2.223208 0,1.135233 0.5169953,1.946563 1.4469712,2.270755 0.3948006,0.137634 1.8395857,0.206207 3.2090577,0.250232 h 2.49123 l 3.643527,4.804195 3.643524,4.804194 0.0051,3.49099 c 0.005,14.396076 0.02457,8.919462 0.45776,9.873889 0.694704,1.530623 1.724362,1.901301 5.299209,1.907721 l 2.851932,0.0047 -0.0084,0.640229 c -0.0068,0.517814 -0.193703,0.72927 -0.97734,1.105858 -1.236636,0.594287 -1.828169,1.417947 -1.978926,2.755461 -0.09704,0.86098 -0.0054,1.257831 0.48328,2.091616 1.563894,1.854243 4.921902,1.646211 5.949057,-0.140204 0.704668,-1.225548 0.619654,-2.142763 0.02954,-3.300231 l -0.460624,-0.903472 0.857673,-1.124652 0.857671,-1.124653 h 20.090375 20.090349 l -0.0084,0.64023 c -0.0068,0.517814 -0.193704,0.729269 -0.977341,1.105857 -1.236635,0.594288 -1.828168,1.417948 -1.978927,2.755462 -0.09704,0.860978 -0.0054,1.25783 0.483282,2.091614 1.147566,1.284248 3.376194,1.202338 4.66919,0.813181 z"
         id="path2679"
         sodipodi:nodetypes="zssccccsccccscssssssscsssssssccccccsssssscssscccccccscssscsssscscssssscsssssccccccsccscssccsssssccsssscccccsccssscsscccccssscz" />
      <path
         style="fill:#ab9176;fill-opacity:1;stroke-width:0.795308"
         d="m 58.807177,37.296641 c 0,-0.128046 0.09857,-0.232811 0.21907,-0.232811 0.120491,0 0.283822,0.104775 0.36296,0.232811 0.07914,0.128059 -0.01943,0.232812 -0.219073,0.232812 -0.199626,0 -0.362957,-0.104763 -0.362957,-0.232812 z"
         id="path2756" />
      <path
         style="fill:#e3ceb3;fill-opacity:1;stroke-width:0.795308"
         d="m 54.849384,39.961094 c 0,-0.07111 0.602399,-0.405578 1.338665,-0.74327 1.840991,-0.844372 3.860717,-0.842707 5.711728,0.0046 0.73195,0.335109 1.330817,0.667458 1.330817,0.738567 0,0.07111 -1.885772,0.129281 -4.190605,0.129281 -2.304834,0 -4.190605,-0.05817 -4.190605,-0.129281 z"
         id="path2754" />
      <path
         style="fill:#ab9176;fill-opacity:1;stroke-width:0.795308"
         d="m 77.664903,43.479892 c 0,-0.245728 0.44679,-0.348964 0.579682,-0.133944 0.08041,0.130122 -0.01708,0.236608 -0.216724,0.236608 -0.199627,0 -0.362958,-0.0462 -0.362958,-0.10266 z"
         id="path2752" />
      <path
         style="fill:#e3ceb3;fill-opacity:1;stroke-width:0.795308"
         d="m 34.20169,44.599815 c -0.08011,-0.208788 0.03164,-0.70884 0.248329,-1.111226 0.361837,-0.67189 0.473764,-0.724002 1.371232,-0.638416 1.035307,0.09873 1.547703,0.536873 1.559871,1.333814 0.01091,0.712172 -0.163782,0.795439 -1.668385,0.795439 -1.047492,0 -1.399289,-0.08839 -1.511047,-0.379611 z"
         id="path2750" />
      <path
         style="fill:#e3ceb3;fill-opacity:1;stroke-width:0.795308"
         d="m 38.402356,44.626029 c -0.07459,-0.19437 -0.0062,-0.665813 0.151958,-1.047652 0.262145,-0.632877 0.385483,-0.694252 1.395135,-0.694252 1.009652,0 1.132991,0.06136 1.395138,0.694252 0.470732,1.136448 0.207245,1.401049 -1.395138,1.401049 -1.047306,0 -1.446472,-0.09118 -1.547093,-0.353397 z"
         id="path2748" />
      <path
         style="fill:#e3ceb3;fill-opacity:1;stroke-width:0.795308"
         d="m 42.59296,44.626029 c 0.208185,0 -0.0062,-0.665813 0.151958,-1.047652 0.262145,-0.632877 0.385483,-0.694252 1.395135,-0.694252 1.009653,0 1.132991,0.06136 1.395137,0.694252 0.470733,1.136448 0.207246,1.401049 -1.395137,1.401049 -1.047306,0 -1.827958,-0.353397 -1.547095,-0.353397 z"
         id="path2746" />
      <path
         style="fill:#e3ceb3;fill-opacity:1;stroke-width:0.795308"
         d="m 33.430732,45.561456 c 0,-0.302525 0.91831,-0.349218 6.867935,-0.349218 5.949627,0 6.867939,0.0467 6.867939,0.349218 0,0.302523 -0.918312,0.349218 -6.867939,0.349218 -5.949625,0 -6.867935,-0.0467 -6.867935,-0.349218 z"
         id="path2744" />
      <path
         style="fill:#000000;fill-opacity:0;stroke-width:0.795308"
         d="m 51.406164,43.602015 c -0.04913,-1.596893 0.01405,-2.24399 0.232811,-2.382754 0.343832,-0.218142 14.156072,-0.270998 14.715532,-0.05632 0.298983,0.114735 0.368258,0.545383 0.368258,2.289311 0,1.1814 -0.07127,2.219268 -0.158377,2.306376 -0.0871,0.0871 -3.518167,0.130753 -7.624573,0.09701 l -7.466198,-0.06139 z"
         id="path2742" />
      <path
         style="fill:#e3ceb3;fill-opacity:1;stroke-width:0.795308"
         d="m 74.172732,45.781176 c 0,-0.07122 0.497634,-0.35239 1.105854,-0.624818 1.48195,-0.663777 3.924003,-0.65403 5.471068,0.02185 0.60822,0.265714 1.105855,0.539223 1.105855,0.607797 0,0.06856 -1.728625,0.124682 -3.841388,0.124682 -2.112764,0 -3.841389,-0.05829 -3.841389,-0.129504 z"
         id="path2740" />
      <path
         style="fill:#ffffff;fill-opacity:1;stroke-width:0.795308"
         d="m 26.679199,47.526612 c 0,-0.570704 0.0922,-0.887995 0.232811,-0.8011 0.128059,0.07914 0.232812,0.504381 0.232812,0.944986 0,0.440605 -0.104775,0.801099 -0.232812,0.801099 -0.128046,0 -0.232811,-0.425244 -0.232811,-0.944985 z"
         id="path2738" />
      <path
         style="fill:#ab9176;fill-opacity:1;stroke-width:0.795308"
         d="m 25.282332,49.868467 c 0,-0.421277 0.155215,-0.465622 1.629678,-0.465622 1.20286,0 1.629681,0.08129 1.629681,0.310414 0,0.529602 -0.262278,0.62083 -1.784889,0.62083 -1.319262,0 -1.47447,-0.04901 -1.47447,-0.465622 z"
         id="path2736" />
      <path
         style="fill:#e3ceb3;fill-opacity:1;stroke-width:0.795308"
         d="m 32.751402,51.637575 c -0.211884,0.169508 -0.246394,-1.067591 -0.203115,-2.386317 l 0.06762,-2.060123 7.624574,-0.06139 7.624575,-0.06139 v 2.311894 c 0,1.631679 -0.08562,2.346447 -0.291014,2.429323 -0.160058,0.06459 -3.499716,0.125694 -7.421461,0.135797 -5.847061,0.01501 -7.129725,-0.524964 -7.401162,-0.307814 z"
         id="path2734" />
      <path
         style="fill:#000000;fill-opacity:0;stroke-width:0.795308"
         d="m 51.609129,51.637575 c -0.211885,0.169508 -0.246395,-1.067591 -0.203116,-2.386317 l 0.06762,-2.060123 7.624574,-0.06139 7.624574,-0.06139 v 2.311894 c 0,1.631679 -0.08562,2.346447 -0.291015,2.429323 -0.160056,0.06459 -3.499714,0.125694 -7.421459,0.135797 -5.847062,0.01501 -7.129725,-0.524964 -7.401162,-0.307814 z"
         id="path2732" />
      <path
         style="fill:#000000;fill-opacity:0;stroke-width:0.795308"
         d="m 70.497772,49.457855 -0.06638,-2.38951 7.632755,0.06139 7.632753,0.0614 0.06802,2.091221 c 0.05771,1.774115 0.0062,2.136462 -0.339957,2.389565 -0.315467,0.230675 -2.04702,0.284402 -7.634422,0.236892 l -7.226419,-0.06144 z"
         id="path2730" />
      <path
         style="fill:#ebdcc9;fill-opacity:1;stroke-width:0.795308"
         d="m 25.33414,54.466493 0.06459,-3.317563 1.241158,-0.07103 c 1.861081,-0.10651 1.901795,-0.0296 1.901795,3.5917 v 3.11445 h -1.63607 -1.636071 z"
         id="path2728" />
      <path
         style="fill:#e3ceb3;fill-opacity:1;stroke-width:0.795308"
         d="m 32.778859,57.504681 c 0.357592,-0.204338 -0.397774,-3.564598 -0.138065,-4.241407 0.12484,-0.325316 1.020717,-0.368258 7.682778,-0.368258 h 7.541463 v 2.289312 c 0,1.259123 -0.06984,2.359157 -0.155215,2.444519 -0.08537,0.08535 -3.416895,0.155215 -7.403403,0.155215 -5.32707,0 -7.779688,-0.135302 -7.527569,-0.279374 z"
         id="path2726" />
      <path
         style="fill:#000000;fill-opacity:0;stroke-width:0.795308"
         d="m 51.473617,55.339536 v -2.328115 h 7.566372 7.566371 l 0.06785,2.076877 c 0.03732,1.142283 0.01389,2.217582 -0.05214,2.38955 -0.09768,0.254533 -1.517256,0.301246 -7.634218,0.251239 l -7.514236,-0.06143 z"
         id="path2724" />
      <path
         style="fill:#000000;fill-opacity:0;stroke-width:0.795308"
         d="m 70.455937,57.333737 c 0.549646,0 -0.332325,-3.464215 -0.09969,-4.070463 0.124826,-0.325281 1.018521,-0.368258 7.65787,-0.368258 6.639346,0 7.533043,0.04297 7.657867,0.368258 0.259717,0.676809 0.153172,3.950182 -0.138064,4.241407 -0.205381,0.205377 -2.207299,0.279374 -7.558183,0.279374 -6.958069,0 -8.008065,-0.450318 -7.519809,-0.450318 z"
         id="path2722" />
      <path
         style="fill:#f8f0ea;fill-opacity:1;stroke-width:0.795308"
         d="m 22.304359,61.179509 c -0.04912,-1.503481 0.01501,-2.128187 0.232811,-2.266346 0.342635,-0.217374 66.068392,-0.273153 66.63286,-0.05654 0.296874,0.113921 0.368253,0.535126 0.368253,2.172905 0,1.117376 -0.07022,2.101791 -0.155998,2.187586 -0.0858,0.0858 -15.198168,0.129452 -33.583048,0.09701 l -33.427055,-0.059 z"
         id="path2720" />
      <path
         style="fill:#f8f0e5;fill-opacity:1;stroke-width:0.795308"
         d="M 8.8301369,64.159543 C 8.4723731,63.613513 8.466681,63.487381 8.7751343,62.937283 l 0.3439593,-0.613405 3.4581634,-0.06461 c 2.973359,-0.05555 3.518844,-0.0097 3.891,0.327098 0.535986,0.48506 0.555209,1.195312 0.04754,1.756285 -0.340258,0.375981 -0.788685,0.425751 -3.836014,0.425751 H 9.2290642 Z"
         id="path2718" />
      <path
         style="fill:#f8f0e5;fill-opacity:1;stroke-width:0.795308"
         d="m 19.049431,69.88293 c -1.443378,-1.910607 -2.681944,-3.623998 -2.752372,-3.807529 -0.07843,-0.204428 0.06124,-0.393772 0.360614,-0.488786 0.268765,-0.0853 0.663694,-0.435256 0.877621,-0.777671 0.213926,-0.342416 0.423884,-0.669443 0.46657,-0.726727 0.04269,-0.05727 0.964896,0.778521 2.049359,1.85735 l 1.971748,1.961505 v 2.740675 c 0,1.507371 -0.07859,2.734904 -0.174609,2.727845 -0.09604,-0.007 -1.355554,-1.576051 -2.798931,-3.486662 z"
         id="path2716" />
      <path
         style="fill:#f8f0e5;fill-opacity:1;stroke-width:0.795308"
         d="M 23.800803,89.040711 23.187028,88.426942 V 73.788472 64.535588 H 55.897034 88.60704 v 9.252884 14.63847 l -0.613776,0.613769 -0.61378,0.613769 H 55.897034 24.414579 Z"
         id="path2714" />
      <path
         style="fill:#ab9176;fill-opacity:1;stroke-width:0.795308"
         d="m 31.859253,92.285882 c -0.393271,-0.09374 -0.523824,-0.29205 -0.523824,-0.79605 v -0.671289 h 1.641247 c 1.765878,0 1.745089,-0.0321 0.803272,1.236976 -0.331658,0.446865 -0.599587,0.588203 -0.931245,0.491241 -0.256093,-0.0749 -0.701346,-0.192262 -0.98945,-0.260878 z"
         id="path2712" />
      <path
         style="fill:#ab9176;fill-opacity:1;stroke-width:0.795308"
         d="m 76.79186,92.285882 c -0.393271,-0.09374 -0.523824,-0.29205 -0.523824,-0.79605 v -0.671289 h 1.641247 c 1.765876,0 1.745089,-0.0321 0.803272,1.236976 -0.331658,0.446865 -0.599587,0.588203 -0.931248,0.491241 -0.256091,-0.0749 -0.701343,-0.192262 -0.989447,-0.260878 z"
         id="path2710" />
      <path
         style="fill:#f8f0e5;fill-opacity:1;stroke-width:0.795308"
         d="m 29.673792,97.604074 c -0.821387,-0.601248 -1.125483,-0.874303 -1.173711,-1.925617 -0.06477,-1.411996 1.12079,-2.451513 2.589153,-2.806831 2.241009,0.03098 3.617411,1.965175 2.456141,3.869876 -0.784088,1.042367 -2.599345,1.368361 -3.871583,0.862572 z"
         id="path2708"
         sodipodi:nodetypes="csccc" />
      <path
         style="fill:#f8f0e5;fill-opacity:1;stroke-width:0.795308"
         d="m 74.988551,97.679004 c -1.014779,-0.429507 -1.369697,-0.904989 -1.550351,-1.907385 -0.362964,-2.013976 1.610857,-3.179746 3.674588,-2.635712 1.754063,0.4624 2.290414,2.088068 1.365194,3.605595 -0.744259,0.941327 -1.819037,1.167101 -3.489431,0.937502 z"
         id="path2706"
         sodipodi:nodetypes="csscc" />
      <path
         style="fill:#e3ceb3;fill-opacity:1;stroke-width:0.795308"
         d="m 51.609127,51.637575 c -0.211884,0.169508 -0.246394,-1.067591 -0.203115,-2.386317 l 0.06762,-2.060123 7.624574,-0.06139 7.624575,-0.06139 v 2.311894 c 0,1.631679 -0.08562,2.346447 -0.291014,2.429323 -0.160058,0.06459 -3.499716,0.125694 -7.421462,0.135797 -5.84706,0.01501 -7.129724,-0.524964 -7.401162,-0.307814 z"
         id="path2734-4" />
      <path
         style="fill:#e3ceb3;fill-opacity:1;stroke-width:0.795308"
         d="m 51.636584,57.504681 c 0.357592,-0.204338 -0.397774,-3.564598 -0.138065,-4.241407 0.12484,-0.325316 1.020717,-0.368258 7.682778,-0.368258 h 7.541463 v 2.289312 c 0,1.259123 -0.06984,2.359157 -0.155215,2.444519 -0.08537,0.08535 -3.416895,0.155215 -7.403404,0.155215 -5.327069,0 -7.779687,-0.135302 -7.527568,-0.279374 z"
         id="path2726-8" />
      <path
         style="fill:#e3ceb3;fill-opacity:1;stroke-width:0.795308"
         d="M 70.564125,51.847372 C 70.35224,52.01688 70.31773,50.77978 70.36101,49.461055 l 0.06762,-2.060123 7.624574,-0.06139 7.624576,-0.06139 v 2.311894 c 0,1.63168 -0.08562,2.346448 -0.291014,2.429323 -0.160058,0.0646 -3.499716,0.125694 -7.421462,0.135797 -5.84706,0.01501 -7.129724,-0.524963 -7.401162,-0.307813 z"
         id="path2734-4-8" />
      <path
         style="fill:#e3ceb3;fill-opacity:1;stroke-width:0.795308"
         d="m 70.591582,57.714478 c 0.357591,-0.204338 -0.397774,-3.564598 -0.138065,-4.241407 0.12484,-0.325317 1.020717,-0.368258 7.682777,-0.368258 h 7.541464 v 2.289312 c 0,1.259123 -0.06984,2.359157 -0.155215,2.444519 -0.08537,0.08535 -3.416895,0.155215 -7.403404,0.155215 -5.327069,0 -7.779688,-0.135302 -7.527568,-0.279374 z"
         id="path2726-8-4" />
      <path
         style="fill:#e3ceb3;fill-opacity:1;stroke-width:0.795308"
         d="m 51.473617,45.794254 c 0.357591,-0.204339 -0.397774,-3.564598 -0.138065,-4.241407 0.12484,-0.325317 1.020717,-0.368259 7.682777,-0.368259 h 7.541464 v 2.289313 c 0,1.259122 -0.06984,2.359157 -0.155215,2.444519 -0.08537,0.08535 -3.416895,0.155214 -7.403404,0.155214 -5.327069,0 -7.779687,-0.135301 -7.527568,-0.279374 z"
         id="path2726-8-5" />
    </g>
  </g>
</svg>
