<svg xmlns="http://www.w3.org/2000/svg" version="1.1" xmlns:xlink="http://www.w3.org/1999/xlink" xmlns:svgjs="http://svgjs.com/svgjs" width="25mm" height="25mm"><svg xmlns:dc="http://purl.org/dc/elements/1.1/" xmlns:cc="http://creativecommons.org/ns#" xmlns:rdf="http://www.w3.org/1999/02/22-rdf-syntax-ns#" xmlns:svg="http://www.w3.org/2000/svg" xmlns="http://www.w3.org/2000/svg" xmlns:xlink="http://www.w3.org/1999/xlink" xmlns:sodipodi="http://sodipodi.sourceforge.net/DTD/sodipodi-0.dtd" xmlns:inkscape="http://www.inkscape.org/namespaces/inkscape" width="25mm" height="25mm" viewBox="0 0 25 25" version="1.1" id="SvgjsSvg1012" sodipodi:docname="bao-icon.svg" inkscape:version="1.0.2 (e86c870879, 2021-01-15, custom)">
  <defs id="SvgjsDefs1011">
    <linearGradient inkscape:collect="always" id="SvgjsLinearGradient1010">
      <stop style="stop-color:#ffffff;stop-opacity:1" offset="0" id="SvgjsStop1009"></stop>
      <stop style="stop-color:#ffffff;stop-opacity:1" offset="0.37391838" id="SvgjsStop1008"></stop>
      <stop style="stop-color:#c3a686;stop-opacity:1" offset="1" id="SvgjsStop1007"></stop>
    </linearGradient>
    <radialGradient inkscape:collect="always" xlink:href="#linearGradient189192" id="SvgjsRadialGradient1006" gradientUnits="userSpaceOnUse" gradientTransform="matrix(-1.9299987,0.01163238,-0.00775282,-1.286314,236.45149,63.451142)" cx="115.92937" cy="41.872303" fx="115.92937" fy="41.872303" r="11.521405"></radialGradient>
  </defs>
  <sodipodi:namedview id="SvgjsSodipodi:namedview1005" pagecolor="#ffffff" bordercolor="#666666" borderopacity="1.0" inkscape:pageopacity="0.0" inkscape:pageshadow="2" inkscape:zoom="5.6" inkscape:cx="-23.915633" inkscape:cy="42.139678" inkscape:document-units="mm" inkscape:current-layer="layer1" inkscape:document-rotation="0" showgrid="false" inkscape:window-width="2560" inkscape:window-height="1387" inkscape:window-x="-8" inkscape:window-y="-8" inkscape:window-maximized="1"></sodipodi:namedview>
  <metadata id="SvgjsMetadata1004">
    <rdf:rdf>
      <cc:work rdf:about="">
        <dc:format>image/svg+xml</dc:format>
        <dc:type rdf:resource="http://purl.org/dc/dcmitype/StillImage"></dc:type>
        <dc:title></dc:title>
      </cc:work>
    </rdf:rdf>
  </metadata>
  <g inkscape:label="Layer 1" inkscape:groupmode="layer" id="SvgjsG1003">
    <path id="SvgjsPath1002" style="mix-blend-mode:normal;fill:url(#radialGradient189850);fill-opacity:1;fill-rule:nonzero;stroke:#ab9176;stroke-width:1;stroke-linecap:round;stroke-linejoin:round;stroke-miterlimit:4;stroke-dasharray:none;stroke-opacity:1" d="M 12.44148,4.741913 C 12.1946,4.727613 11.99112,4.822293 11.72575,5.007507 10.7773,5.669492 9.68502,6.169459 7.54753,6.920702 5.09662,7.782101 4.3795,8.183426 3.14137,9.386934 1.7416,10.747576 1.1467,12.331273 1.26008,14.393554 c 0.18175,3.305693 3.19065,5.356504 8.50562,5.797077 1.59958,0.132594 4.85057,0.05467 6.24204,-0.149464 4.09265,-0.600378 6.65375,-2.244146 7.42858,-4.768048 0.51421,-1.674956 0.4493,-2.550622 -0.31072,-4.194892 C 22.28148,9.252004 20.50315,8.022793 16.72202,6.651949 15.63529,6.257955 14.33442,5.684115 13.83125,5.376576 13.14769,4.958792 12.75889,4.760313 12.44148,4.741913 Z" sodipodi:nodetypes="sssssscsssss"></path>
    <g id="SvgjsG1001" transform="matrix(0.4727478,0,0,0.49890451,-165.60314,-26.744216)" style="stroke-width:2.05911">
      <path style="fill:#cfc3b9;stroke-width:2.05911" d="m 372.91722,81.671591 c -1.16436,-0.843465 -2.28218,-2.541074 -2.5637,-3.893468 -0.0959,-0.460766 -0.0392,-1.353735 0.12608,-1.984375 0.32903,-1.25562 1.43849,-3.130994 1.85227,-3.130994 0.15122,0 0.26248,0.972949 0.26474,2.315104 0.004,2.427404 0.50219,5.092414 1.20622,6.453852 0.22901,0.44287 0.36709,0.854519 0.30684,0.914773 -0.0602,0.06025 -0.59686,-0.243449 -1.19245,-0.674892 z m 9.09763,-1.072075 c -1.53518,-0.599549 -2.41267,-1.364533 -3.0979,-2.7007 -0.68432,-1.33441 -0.68046,-4.706896 0.005,-4.706896 0.10319,0 0.71488,1.041797 1.35931,2.315105 0.81686,1.61399 1.67145,2.815899 2.82189,3.96875 1.56374,1.56701 1.61233,1.652997 0.92749,1.641271 -0.39749,-0.0068 -1.30477,-0.239697 -2.01618,-0.51753 z M 361.2372,78.121629 c -1.5576,-2.520249 0.23298,-4.828897 4.94053,-6.369986 1.76564,-0.578007 2.28624,-0.41855 1.07583,0.329522 -2.04978,1.266838 -4.70374,4.90981 -4.71244,6.468568 -0.004,0.759399 -0.71403,0.526359 -1.30392,-0.428104 z m 26.56904,-1.641623 c -0.43656,-0.227052 -1.0506,-0.653426 -1.36454,-0.947497 -0.70677,-0.662051 -1.8542,-2.781919 -1.62813,-3.007979 0.0915,-0.09155 1.04047,0.305972 2.10872,0.883367 2.16051,1.167763 3.30585,1.580849 5.64645,2.036482 l 1.5875,0.309034 -1.19062,0.565525 c -1.45373,0.690497 -3.98923,0.769649 -5.15938,0.161068 z" id="SvgjsPath1000" sodipodi:nodetypes="ssssssssssssssssssscsssssscss"></path>
    </g>
  </g>
</svg><style>@media (prefers-color-scheme: light) { :root { filter: none; } }
</style></svg>