<?xml version="1.0" encoding="UTF-8" standalone="no"?>
<svg
   xmlns:osb="http://www.openswatchbook.org/uri/2009/osb"
   xmlns:dc="http://purl.org/dc/elements/1.1/"
   xmlns:cc="http://creativecommons.org/ns#"
   xmlns:rdf="http://www.w3.org/1999/02/22-rdf-syntax-ns#"
   xmlns:svg="http://www.w3.org/2000/svg"
   xmlns="http://www.w3.org/2000/svg"
   xmlns:xlink="http://www.w3.org/1999/xlink"
   xmlns:sodipodi="http://sodipodi.sourceforge.net/DTD/sodipodi-0.dtd"
   xmlns:inkscape="http://www.inkscape.org/namespaces/inkscape"
   width="100mm"
   height="100mm"
   viewBox="0 0 100 100"
   version="1.1"
   id="svg8"
   sodipodi:docname="rolling-pin.svg"
   inkscape:version="1.0.2 (e86c870879, 2021-01-15, custom)">
  <defs
     id="defs2">
    <linearGradient
       inkscape:collect="always"
       id="linearGradient189192">
      <stop
         style="stop-color:#ffffff;stop-opacity:1"
         offset="0"
         id="stop189188" />
      <stop
         style="stop-color:#ffffff;stop-opacity:1"
         offset="0.37391838"
         id="stop189196" />
      <stop
         style="stop-color:#c3a686;stop-opacity:1"
         offset="1"
         id="stop189190" />
    </linearGradient>
    <linearGradient
       id="linearGradient189162"
       osb:paint="solid">
      <stop
         style="stop-color:#999999;stop-opacity:1;"
         offset="0"
         id="stop189160" />
    </linearGradient>
    <linearGradient
       id="linearGradient187222"
       osb:paint="solid">
      <stop
         style="stop-color:#999999;stop-opacity:1;"
         offset="0"
         id="stop187220" />
    </linearGradient>
    <radialGradient
       inkscape:collect="always"
       xlink:href="#linearGradient189192"
       id="radialGradient189194"
       cx="115.92937"
       cy="41.872303"
       fx="115.92937"
       fy="41.872303"
       r="11.521405"
       gradientTransform="matrix(-1.9299987,0.01163238,-0.00775282,-1.286314,340.74457,91.042354)"
       gradientUnits="userSpaceOnUse" />
  </defs>
  <sodipodi:namedview
     id="base"
     pagecolor="#ffffff"
     bordercolor="#666666"
     borderopacity="1.0"
     inkscape:pageopacity="0.0"
     inkscape:pageshadow="2"
     inkscape:zoom="1.865274"
     inkscape:cx="211.69205"
     inkscape:cy="224.80538"
     inkscape:document-units="mm"
     inkscape:current-layer="layer1"
     inkscape:document-rotation="0"
     showgrid="false"
     inkscape:window-width="2560"
     inkscape:window-height="1387"
     inkscape:window-x="-8"
     inkscape:window-y="-8"
     inkscape:window-maximized="1" />
  <metadata
     id="metadata5">
    <rdf:RDF>
      <cc:Work
         rdf:about="">
        <dc:format>image/svg+xml</dc:format>
        <dc:type
           rdf:resource="http://purl.org/dc/dcmitype/StillImage" />
        <dc:title />
      </cc:Work>
    </rdf:RDF>
  </metadata>
  <g
     inkscape:label="Layer 1"
     inkscape:groupmode="layer"
     id="layer1">
    <g
       id="g1947"
       transform="matrix(1.8935803,1.4774874,-1.5071642,1.8562949,27.50538,-175.16124)"
       style="stroke-width:0.417325">
      <path
         style="fill:#ab9176;fill-opacity:1;stroke-width:0.417325"
         d="m 46.015929,59.622276 c 1.08472,-1.539575 3.208962,-1.080166 4.610312,-0.290733 1.386685,0.340306 2.727708,2.129673 4.103432,0.987652 2.317468,-0.690359 2.804794,-6.13e-4 6.599176,1.524366 3.794384,1.524986 14.929712,5.111295 16.694473,7.582346 1.764764,2.471049 0.555318,1.885393 1.126734,2.38035 2.140849,0.62837 4.581714,1.046093 6.167684,2.748821 1.083264,1.10653 1.275127,2.795468 0.434738,4.105514 -1.217604,1.546338 -3.454714,1.169007 -4.942218,0.248979 -1.363774,-0.846974 -2.658443,-1.81654 -3.873876,-2.866049 -1.288251,0.798525 -2.883838,0.961799 -4.305241,0.404756 -5.312979,-1.907871 -10.169661,-4.861636 -15.409971,-6.948552 -1.705362,-0.819866 -3.898253,-1.216923 -4.872162,-3.01251 0.02065,-1.92582 -2.262892,-1.475649 -3.571045,-2.107315 -1.427746,-0.361841 -3.126982,-1.130943 -3.287246,-2.805041 -0.100881,-0.680457 0.178789,-1.38049 0.52521,-1.952584 z"
         id="path1928" />
      <path
         style="fill:#e4cdaa;fill-opacity:1;stroke-width:0.417325"
         d="m 82.142975,77.962638 c 0.858638,0.293106 2.643616,0.259735 3.213599,-0.667957 0.355303,-1.78444 -1.427069,-3.146731 -2.948963,-3.61683 -1.086963,-0.420185 -2.570059,-1.026028 -3.510788,-1.154171 0.08991,1.095897 -1.309332,2.478502 -1.152134,3.135551 2.224181,1.164996 3.097933,1.932856 4.398286,2.303407 z"
         id="path1941" />
      <path
         style="fill:#e4cdaa;fill-opacity:1;stroke-width:0.417325"
         d="m 53.004412,63.59077 c -0.118091,0.998216 -0.359858,2.07256 0.367477,2.813544 0.727334,0.740984 2.232336,1.230624 3.807093,1.905414 1.574758,0.67479 4.430202,1.662717 6.728804,2.87436 3.509812,1.353158 6.811575,3.335892 10.513387,4.139191 1.934913,0.658922 3.643845,-1.679076 3.504791,-3.4031 0.05036,-1.84577 -1.688038,-2.828586 -3.171081,-3.432657 -2.413831,-1.059271 -4.142138,-2.128101 -7.182809,-3.315339 -3.040671,-1.187239 -7.189799,-3.182053 -11.015788,-4.119329 -0.893214,-0.297931 -3.29214,1.510896 -3.551874,2.537916 z"
         id="path1939" />
      <path
         style="fill:#e4cdaa;fill-opacity:1;stroke-width:0.417325"
         d="m 46.625387,60.449695 c -0.276676,0.98104 -0.205186,1.881685 2.066434,2.71654 1.830326,0.665094 2.490923,1.507857 3.989151,-0.158677 0.373367,-0.650676 0.744747,-1.803991 -0.04074,-1.881023 -1.440811,-0.551286 -2.796137,-1.355955 -4.307621,-1.700815 -0.620286,-0.06614 -1.590616,0.463375 -1.707207,1.023975 z"
         id="path1937" />
    </g>
  </g>
</svg>
